<svg id="_24_Hours_Delivery" data-name="24 Hours Delivery" xmlns="http://www.w3.org/2000/svg" width="86.322" height="75.53" viewBox="0 0 86.322 75.53">
  <path id="Path_4" data-name="Path 4" d="M85.87,49.379c-23.481-27.4-21.755-25.8-22.942-25.8H44.949a1.8,1.8,0,0,0-1.8,1.8A16.182,16.182,0,1,1,24.164,9.447l-.27.27a1.8,1.8,0,0,0,1.277,3.074c.971,0,1.025-.27,4.872-4.117a1.8,1.8,0,0,0,0-2.553l-3.6-3.6a1.805,1.805,0,0,0-2.553,2.553l.683.683a19.777,19.777,0,0,0-17.3,17.818H1.8a1.8,1.8,0,0,0-1.8,1.8V68.527a1.8,1.8,0,0,0,1.8,1.8h9.17a8.99,8.99,0,0,0,17.62,0H59.512a8.99,8.99,0,0,0,17.62,0H84.5a1.8,1.8,0,0,0,1.8-1.8C86.3,49.2,86.463,50.062,85.87,49.379ZM80.6,48.75H61.13V34.366h7.192ZM19.777,73.921a5.394,5.394,0,1,1,5.394-5.394A5.394,5.394,0,0,1,19.777,73.921Zm48.545,0a5.394,5.394,0,1,1,5.394-5.394A5.394,5.394,0,0,1,68.322,73.921Zm8.81-7.192a8.99,8.99,0,0,0-17.62,0H28.587a8.99,8.99,0,0,0-17.62,0H3.6v-3.6H8.99a1.8,1.8,0,0,0,0-3.6H3.6V27.175H7.282a19.777,19.777,0,0,0,39.465,0H62.191l3.074,3.6H59.332a1.8,1.8,0,0,0-1.8,1.8V50.548a1.8,1.8,0,0,0,1.8,1.8H82.706v3.6h-3.6a1.8,1.8,0,1,0,0,3.6h3.6v7.192Z" transform="translate(0 -1.996)" fill="#5a257f"/>
  <path id="Path_5" data-name="Path 5" d="M30.6,28H28.8a1.8,1.8,0,1,0,0,3.6h1.8a1.8,1.8,0,0,0,0-3.6Z" transform="translate(21.545 18.754)" fill="#5a257f"/>
  <path id="Path_6" data-name="Path 6" d="M38.8,38a1.8,1.8,0,1,0,1.8,1.8A1.8,1.8,0,0,0,38.8,38Z" transform="translate(29.524 26.733)" fill="#5a257f"/>
  <path id="Path_7" data-name="Path 7" d="M11.8,38a1.8,1.8,0,1,0,1.8,1.8A1.8,1.8,0,0,0,11.8,38Z" transform="translate(7.979 26.733)" fill="#5a257f"/>
  <path id="Path_8" data-name="Path 8" d="M16.99,19.99a1.8,1.8,0,0,0,1.8-1.8V12.8a1.8,1.8,0,0,0-1.8-1.8H9.8a1.8,1.8,0,1,0,0,3.6h5.394v1.8H9.8a1.8,1.8,0,0,0-1.8,1.8v5.394a1.8,1.8,0,0,0,1.8,1.8H16.99a1.8,1.8,0,0,0,0-3.6H11.6v-1.8Z" transform="translate(6.384 5.189)" fill="#5a257f"/>
  <path id="Path_9" data-name="Path 9" d="M16,12.8v5.394a1.8,1.8,0,0,0,1.8,1.8h5.394v3.6a1.8,1.8,0,0,0,3.6,0V12.8a1.8,1.8,0,1,0-3.6,0v3.6H19.6V12.8a1.8,1.8,0,1,0-3.6,0Z" transform="translate(12.767 5.189)" fill="#5a257f"/>
  <path id="Path_10" data-name="Path 10" d="M19.115,8.3c2.841,1.187,3.074,2.229,4.279,2.229a1.8,1.8,0,0,0,1.1-3.218A17.4,17.4,0,0,0,20.481,4.97,1.8,1.8,0,0,0,19.115,8.3Z" transform="translate(14.363 0.269)" fill="#5a257f"/>
  <path id="Path_11" data-name="Path 11" d="M24.267,14.536a1.8,1.8,0,0,0,3.38-1.187,17.117,17.117,0,0,0-1.888-3.866,1.8,1.8,0,1,0-3.021,1.96A14.563,14.563,0,0,1,24.267,14.536Z" transform="translate(17.913 3.325)" fill="#5a257f"/>
</svg>
