<svg xmlns="http://www.w3.org/2000/svg" width="14.489" height="10.852" viewBox="0 0 14.489 10.852">
  <g id="email" transform="translate(0 -64.266)">
    <path id="Path_2" data-name="Path 2" d="M8.455,175.429a2.179,2.179,0,0,1-2.422,0L.1,171.47c-.033-.022-.065-.045-.1-.068v6.486a1.333,1.333,0,0,0,1.334,1.334H13.155a1.333,1.333,0,0,0,1.334-1.334V171.4q-.047.036-.1.069Z" transform="translate(0 -104.104)" fill="#434343"/>
    <path id="Path_3" data-name="Path 3" d="M.567,66.66,6.5,70.618a1.33,1.33,0,0,0,1.48,0l5.937-3.958a1.271,1.271,0,0,0,.567-1.06,1.335,1.335,0,0,0-1.333-1.333H1.333A1.335,1.335,0,0,0,0,65.6a1.271,1.271,0,0,0,.567,1.06Z" transform="translate(0 0)" fill="#434343"/>
  </g>
</svg>
