<svg id="exchange" xmlns="http://www.w3.org/2000/svg" width="75.53" height="75.53" viewBox="0 0 75.53 75.53">
  <path id="Path_12" data-name="Path 12" d="M74.766,16.835,45.35.683a1.476,1.476,0,0,0-1.42,0L32.842,6.771a1.479,1.479,0,0,0-.633.348L14.514,16.835a1.474,1.474,0,0,0-.765,1.293V37.665A19.653,19.653,0,0,0,1.993,65.018a1.475,1.475,0,0,0,2.651-1.3,16.678,16.678,0,1,1,7.666,7.666,1.475,1.475,0,0,0-1.295,2.651,19.666,19.666,0,0,0,26.558-9.65l6.357,3.49a1.475,1.475,0,0,0,1.42,0L74.766,51.727a1.476,1.476,0,0,0,.765-1.293V40.182a1.475,1.475,0,1,0-2.95,0v9.379L46.12,64.091V35.152l8.733-4.8v7.6a1.475,1.475,0,0,0,2.186,1.293l6.3-3.47a1.474,1.474,0,0,0,.764-1.292V25.275l8.475-4.653v7.759a1.475,1.475,0,1,0,2.95,0V18.129a1.475,1.475,0,0,0-.765-1.293ZM44.64,3.658l26.351,14.47-8.312,4.564L36.327,8.223Zm0,28.94L18.289,18.129,26.906,13.4l26.352,14.47Zm11.682-6.415L29.971,11.714l3.292-1.808,26.352,14.47ZM33.513,42.519a19.5,19.5,0,0,0-13.88-5.749,19.9,19.9,0,0,0-2.934.217V20.621L43.17,35.157V64.1l-4.594-2.523a19.724,19.724,0,0,0,.686-5.175,19.5,19.5,0,0,0-5.749-13.879Zm27.643-8.9L57.8,35.463V28.736L61.156,26.9Zm0,0" transform="translate(-0.001 -0.501)" fill="#5a257f"/>
  <path id="Path_13" data-name="Path 13" d="M493.475,219.441a1.476,1.476,0,1,0,1.043.432A1.487,1.487,0,0,0,493.475,219.441Zm0,0" transform="translate(-419.42 -187.143)" fill="#5a257f"/>
  <path id="Path_14" data-name="Path 14" d="M70.475,331.452a1.475,1.475,0,0,0,1.043-2.518L70.5,327.911h8.719a3.836,3.836,0,1,1,0,7.671H74.049a1.475,1.475,0,1,0,0,2.95h5.166a6.785,6.785,0,1,0,0-13.571H70.5l1.022-1.022a1.475,1.475,0,1,0-2.086-2.087l-3.54,3.54a1.476,1.476,0,0,0,0,2.087l3.54,3.54A1.47,1.47,0,0,0,70.475,331.452Zm0,0" transform="translate(-55.803 -274.079)" fill="#5a257f"/>
  <path id="Path_15" data-name="Path 15" d="M37.544,459.385a1.468,1.468,0,0,1-1.127-.525l0,0a1.473,1.473,0,1,1,1.13.528Zm0,0" transform="translate(-30.747 -389.173)" fill="#5a257f"/>
</svg>
