<svg xmlns="http://www.w3.org/2000/svg" width="16.699" height="19" viewBox="0 0 16.699 19">
  <g id="user" transform="translate(-31)">
    <g id="Group_13" data-name="Group 13" transform="translate(34.34)">
      <g id="Group_12" data-name="Group 12">
        <path id="Path_25" data-name="Path 25" d="M126.01,0a5.01,5.01,0,1,0,5.01,5.01A5.015,5.015,0,0,0,126.01,0Z" transform="translate(-121)" fill="#434343"/>
      </g>
    </g>
    <g id="Group_15" data-name="Group 15" transform="translate(31 11.133)">
      <g id="Group_14" data-name="Group 14">
        <path id="Path_26" data-name="Path 26" d="M45.583,302.16a7.142,7.142,0,0,0-5.12-2.16H38.236a7.142,7.142,0,0,0-5.12,2.16A7.3,7.3,0,0,0,31,307.311a.557.557,0,0,0,.557.557H47.143a.557.557,0,0,0,.557-.557A7.3,7.3,0,0,0,45.583,302.16Z" transform="translate(-31 -300)" fill="#434343"/>
      </g>
    </g>
  </g>
</svg>
