<svg id="shopping-cart" xmlns="http://www.w3.org/2000/svg" width="19" height="19" viewBox="0 0 19 19">
  <g id="shopping-cart-2" data-name="shopping-cart">
    <path id="Path_1" data-name="Path 1" d="M5.7,15.2a1.9,1.9,0,1,0,1.9,1.9A1.906,1.906,0,0,0,5.7,15.2ZM0,0V1.9H1.9L5.32,9.12,3.99,11.4a3.375,3.375,0,0,0-.19.95,1.906,1.906,0,0,0,1.9,1.9H17.1v-1.9H6.08a.2.2,0,0,1-.19-.19v-.1l.855-1.615h7.03A1.733,1.733,0,0,0,15.39,9.5l3.42-6.175A.523.523,0,0,0,19,2.85a.9.9,0,0,0-.95-.95H3.99L3.135,0ZM15.2,15.2a1.9,1.9,0,1,0,1.9,1.9A1.906,1.906,0,0,0,15.2,15.2Z" fill="#434343"/>
  </g>
</svg>
