<svg id="guarantee-certificate" xmlns="http://www.w3.org/2000/svg" width="75.52" height="75.53" viewBox="0 0 75.52 75.53">
  <path id="Path_20" data-name="Path 20" d="M75.176,60.158,58.892,43.874a2.348,2.348,0,0,1,.254-.173l4.34-2.309a4.807,4.807,0,0,0,2.073-6.384L63.4,30.585a2.452,2.452,0,0,1,0-2.167L65.559,24a4.807,4.807,0,0,0-2.073-6.384l-4.345-2.307a2.449,2.449,0,0,1-1.272-1.752l-.851-4.848A4.807,4.807,0,0,0,51.59,4.76l-4.874.69a2.478,2.478,0,0,1-2.06-.669l-3.54-3.422a4.806,4.806,0,0,0-6.712,0l-3.54,3.422a2.478,2.478,0,0,1-2.06.669l-4.875-.69A4.81,4.81,0,0,0,18.5,8.706l-.851,4.848a2.446,2.446,0,0,1-1.273,1.752l-4.34,2.307A4.807,4.807,0,0,0,9.963,24l2.162,4.422a2.452,2.452,0,0,1,0,2.167L9.958,35.007a4.807,4.807,0,0,0,2.073,6.384l4.35,2.307a2.453,2.453,0,0,1,.253.173L.349,60.156a1.18,1.18,0,0,0,.569,1.985l10.128,2.338,2.338,10.128a1.18,1.18,0,0,0,1.985.569L33.639,56.9l.766.742a4.807,4.807,0,0,0,6.712,0l.766-.742L60.157,75.178a1.18,1.18,0,0,0,1.985-.569l2.338-10.128,10.128-2.338a1.18,1.18,0,0,0,.569-1.985ZM15.2,72l-2.024-8.772a1.18,1.18,0,0,0-.885-.885L3.52,60.322,17.764,46.078l.74,4.22a4.812,4.812,0,0,0,5.428,3.946l4.874-.69a2.485,2.485,0,0,1,2.06.669l1.075,1.04ZM36.046,55.949l-1.587-1.534-1.952-1.888a4.8,4.8,0,0,0-3.345-1.359,5,5,0,0,0-.686.048l-4.876.69a2.452,2.452,0,0,1-2.774-2.017l-.851-4.848a4.812,4.812,0,0,0-.59-1.56,1.206,1.206,0,0,0-.093-.165,4.779,4.779,0,0,0-1.8-1.7L13.14,39.306a2.456,2.456,0,0,1-1.062-3.262l2.162-4.418a4.807,4.807,0,0,0,0-4.241l-2.162-4.422A2.456,2.456,0,0,1,13.14,19.7l4.347-2.307a4.793,4.793,0,0,0,2.492-3.429l.851-4.848A2.447,2.447,0,0,1,23.6,7.1l4.875.69a4.8,4.8,0,0,0,4.031-1.311l3.54-3.422a2.454,2.454,0,0,1,3.429,0l3.54,3.422a4.8,4.8,0,0,0,4.03,1.312L51.921,7.1A2.451,2.451,0,0,1,54.7,9.115l.851,4.848a4.8,4.8,0,0,0,2.491,3.429L62.386,19.7a2.456,2.456,0,0,1,1.062,3.262l-2.167,4.418a4.807,4.807,0,0,0,0,4.241l2.162,4.422A2.456,2.456,0,0,1,62.381,39.3l-4.347,2.307a4.793,4.793,0,0,0-2.492,3.429l-.851,4.848a2.453,2.453,0,0,1-2.77,2.02l-4.877-.691a4.8,4.8,0,0,0-4.031,1.311l-3.54,3.422a2.454,2.454,0,0,1-3.427,0Zm27.183,6.4a1.18,1.18,0,0,0-.885.885L60.321,72,43.579,55.262l1.074-1.04a2.49,2.49,0,0,1,2.06-.669l4.875.69A4.811,4.811,0,0,0,57.017,50.3l.74-4.22L72,60.322Z" transform="translate(-0.003 0.006)" fill="#5a257f"/>
  <path id="Path_21" data-name="Path 21" d="M52.4,27.7a17.692,17.692,0,0,0-4.288-11.549,1.18,1.18,0,1,0-1.785,1.536,15.323,15.323,0,1,1-3.1-2.745,1.18,1.18,0,1,0,1.315-1.959A17.7,17.7,0,1,0,52.4,27.7Z" transform="translate(3.057 1.807)" fill="#5a257f"/>
  <path id="Path_22" data-name="Path 22" d="M40.172,20.372l-9.195,9.683-4.4-5.018a1.18,1.18,0,1,0-1.77,1.555l5.25,5.989a1.18,1.18,0,0,0,.864.4h.024a1.18,1.18,0,0,0,.856-.368L41.879,22a1.18,1.18,0,1,0-1.711-1.624Z" transform="translate(4.401 3.604)" fill="#5a257f"/>
</svg>
