<svg id="like" xmlns="http://www.w3.org/2000/svg" width="66.384" height="75.53" viewBox="0 0 66.384 75.53">
  <g id="Group_2" data-name="Group 2" transform="translate(0 13.424)">
    <g id="Group_1" data-name="Group 1">
      <path id="Path_16" data-name="Path 16" d="M95.689,124.34a6.635,6.635,0,0,0-4.943-11.064H77.861a42.907,42.907,0,0,0,1.82-11.213V99.851A8.862,8.862,0,0,0,70.83,91H68.618a2.212,2.212,0,0,0-2.146,1.676L65.266,97.5c-1.689,6.753-7.051,14.2-12.6,15.559a6.647,6.647,0,0,0-6.175-4.207H33.213A2.214,2.214,0,0,0,31,111.063v39.83a2.214,2.214,0,0,0,2.213,2.213H46.49a6.645,6.645,0,0,0,5.992-3.784l7.6,2.534a24.287,24.287,0,0,0,7.7,1.249H86.32a6.64,6.64,0,0,0,6.172-9.084,6.635,6.635,0,0,0,3.2-10.831,6.625,6.625,0,0,0,0-8.851ZM48.7,146.468a2.216,2.216,0,0,1-2.213,2.213H35.426v-35.4H46.49a2.215,2.215,0,0,1,2.213,2.213ZM86.32,126.552h4.426a2.213,2.213,0,0,1,0,4.426H86.32a2.213,2.213,0,0,0,0,4.426h4.426a2.213,2.213,0,1,1,0,4.426H86.32a2.213,2.213,0,1,0,0,4.426,2.213,2.213,0,1,1,0,4.426H67.783a19.872,19.872,0,0,1-6.3-1.022l-8.356-2.785V117.492c3.471-.659,6.869-2.857,9.935-6.455a32.288,32.288,0,0,0,6.5-12.464l.786-3.147h.485a4.431,4.431,0,0,1,4.426,4.426v2.211c0,2.971-.929,8.67-2.118,11.213h-4.52a2.213,2.213,0,1,0,0,4.426H90.746a2.213,2.213,0,0,1,0,4.426H86.32a2.213,2.213,0,0,0,0,4.426Z" transform="translate(-31 -91)" fill="#5a257f"/>
    </g>
  </g>
  <g id="Group_4" data-name="Group 4" transform="translate(8.896 62.186)">
    <g id="Group_3" data-name="Group 3" transform="translate(0 0)">
      <circle id="Ellipse_7" data-name="Ellipse 7" cx="2.224" cy="2.224" r="2.224" fill="#5a257f"/>
    </g>
  </g>
  <g id="Group_6" data-name="Group 6" transform="translate(39.83)">
    <g id="Group_5" data-name="Group 5">
      <path id="Path_17" data-name="Path 17" d="M303.213,0A2.213,2.213,0,0,0,301,2.213V6.786a2.213,2.213,0,1,0,4.426,0V2.213A2.213,2.213,0,0,0,303.213,0Z" transform="translate(-301)" fill="#5a257f"/>
    </g>
  </g>
  <g id="Group_8" data-name="Group 8" transform="translate(25.748 5.981)">
    <g id="Group_7" data-name="Group 7">
      <path id="Path_18" data-name="Path 18" d="M212.447,44.319l-3.129-3.129a2.213,2.213,0,0,0-3.129,3.129l3.129,3.129a2.213,2.213,0,1,0,3.129-3.129Z" transform="translate(-205.541 -40.542)" fill="#5a257f"/>
    </g>
  </g>
  <g id="Group_10" data-name="Group 10" transform="translate(50.783 5.981)">
    <g id="Group_9" data-name="Group 9">
      <path id="Path_19" data-name="Path 19" d="M382.153,41.19a2.213,2.213,0,0,0-3.129,0l-3.129,3.129a2.213,2.213,0,0,0,3.129,3.129l3.129-3.129A2.213,2.213,0,0,0,382.153,41.19Z" transform="translate(-375.247 -40.542)" fill="#5a257f"/>
    </g>
  </g>
</svg>
